<?xml version="1.0"?>
<svg xmlns="http://www.w3.org/2000/svg" enable-background="new 0 0 24 24" height="512px" viewBox="0 0 24 24" width="512px" class=""><g><path d="m22.25 14h-2.756c-.773 0-1.454.507-1.676 1.247l-1.126 3.753h-9.383l-1.126-3.752c-.223-.741-.905-1.248-1.678-1.248h-2.755c-.966 0-1.75.784-1.75 1.75v5.5c0 1.519 1.231 2.75 2.75 2.75h18.5c1.519 0 2.75-1.231 2.75-2.75v-5.5c0-.966-.784-1.75-1.75-1.75z" fill="#2196f3" data-original="#2196F3" class=""/><path d="m16.25 5.75c-.192 0-.384-.073-.53-.22l-3.72-3.719-3.72 3.719c-.293.293-.768.293-1.061 0s-.293-.768 0-1.061l4.25-4.25c.293-.293.768-.293 1.061 0l4.25 4.25c.293.293.293.768 0 1.061-.146.147-.338.22-.53.22z" data-original="#000000" class="active-path" style="fill:#F8F8F8" data-old_color="#000000"/><path d="m12 14c-.414 0-.75-.336-.75-.75v-12.5c0-.414.336-.75.75-.75s.75.336.75.75v12.5c0 .414-.336.75-.75.75z" data-original="#000000" class="active-path" style="fill:#F8F8F8" data-old_color="#000000"/><path d="m21.25 24h-18.5c-1.517 0-2.75-1.233-2.75-2.75v-5.5c0-.965.785-1.75 1.75-1.75h2.756c.778 0 1.452.501 1.677 1.247l1.072 3.574c.031.106.13.179.239.179h9.012c.109 0 .208-.073.239-.179l1.072-3.574c.225-.746.899-1.247 1.677-1.247h2.756c.965 0 1.75.785 1.75 1.75v5.5c0 1.517-1.233 2.75-2.75 2.75zm-19.5-8.5c-.138 0-.25.112-.25.25v5.5c0 .689.561 1.25 1.25 1.25h18.5c.689 0 1.25-.561 1.25-1.25v-5.5c0-.138-.112-.25-.25-.25h-2.756c-.111 0-.208.071-.239.179l-1.072 3.574c-.221.734-.91 1.247-1.677 1.247h-9.012c-.767 0-1.456-.513-1.677-1.247l-1.072-3.574c-.031-.108-.128-.179-.239-.179z" data-original="#000000" class="active-path" style="fill:#F8F8F8" data-old_color="#000000"/></g> </svg>
